<?xml version="1.0" encoding="UTF-8"?>
<svg version="1.1" xmlns="http://www.w3.org/2000/svg" width="1536" height="1024">
<path d="M0 0 C506.88 0 1013.76 0 1536 0 C1536 337.92 1536 675.84 1536 1024 C1029.12 1024 522.24 1024 0 1024 C0 686.08 0 348.16 0 0 Z " fill="#1A1C29" transform="translate(0,0)"/>
<path d="M0 0 C11.88 0 23.76 0 36 0 C40.455 5.445 40.455 5.445 45 11 C48.37550341 14.38046881 48.37550341 14.38046881 51.7734375 17.73828125 C55.45847337 21.36040187 58.8884861 25.12706274 62.2578125 29.04296875 C63.89795129 30.8853668 65.60107561 32.59988636 67.375 34.3125 C72.99864726 39.84688302 78.49269343 45.90494405 82 53 C82.598125 53.28875 83.19625 53.5775 83.8125 53.875 C87.13333325 55.5828571 88.76432833 58.01910444 91 61 C91 61.66 91 62.32 91 63 C92.485 63.495 92.485 63.495 94 64 C95.3671875 65.35546875 95.3671875 65.35546875 96.875 67.1875 C100.30438679 71.23709504 103.8755015 75.12617557 107.5 79 C111.62411493 83.41718734 115.70252851 87.85709937 119.6328125 92.44921875 C121.02316915 94.02628044 122.51335694 95.51335694 124 97 C124.33 64.99 124.66 32.98 125 0 C137.87 0 150.74 0 164 0 C163.32355147 6.08803673 162.51040519 11.85920275 161.25 17.8125 C159.52420642 26.18484431 157.98094293 34.58108106 156.5 43 C154.96323436 51.71104999 153.3595337 60.39815265 151.58984375 69.06469727 C149.97695232 77.00674747 148.48693151 84.97114552 147 92.9375 C146.87023773 93.63247589 146.74047546 94.32745178 146.60678101 95.04348755 C146.09310559 97.79491086 145.57950292 100.5463477 145.06617737 103.2978363 C143.71092611 110.5578034 142.32957848 117.81267637 140.94140625 125.06640625 C140.25461162 128.65623736 139.57665493 132.24764709 138.90234375 135.83984375 C138.72010254 136.80704346 138.53786133 137.77424316 138.35009766 138.77075195 C138.00046396 140.62704965 137.65239694 142.48364334 137.30615234 144.34057617 C137.14969238 145.16920166 136.99323242 145.99782715 136.83203125 146.8515625 C136.69514893 147.58197754 136.5582666 148.31239258 136.41723633 149.06494141 C136 151 136 151 135 154 C131.84375 154.34375 131.84375 154.34375 128 154 C125.7927889 152.18086997 124.26372606 150.67549972 122.5 148.5 C121.79182129 147.67786011 121.79182129 147.67786011 121.06933594 146.83911133 C119.69561244 145.23979858 118.34716396 143.62168235 117 142 C115.75430894 140.55876441 114.50503099 139.12060972 113.25 137.6875 C112.70859375 137.06230469 112.1671875 136.43710937 111.609375 135.79296875 C109.96463731 133.96060322 108.25443496 132.22726451 106.5 130.5 C103.52893885 127.57484929 100.79269669 124.51123697 98.0703125 121.35546875 C95.49078482 118.42064763 92.84307767 115.55343288 90.1875 112.6875 C76.58807783 98.00190953 76.58807783 98.00190953 70.5625 91.0625 C67.13607572 87.11765691 63.59860881 83.27734234 60.05810547 79.43530273 C56.83087583 75.92659625 53.68356387 72.35956681 50.5703125 68.75 C48.96693722 66.96315392 47.28759133 65.29392556 45.5625 63.625 C43 61 43 61 43 59 C42.34 59 41.68 59 41 59 C39.64613064 57.34997172 38.31321858 55.6825613 37 54 C36.01 53.505 36.01 53.505 35 53 C35 86.33 35 119.66 35 154 C23.45 154 11.9 154 0 154 C0 103.18 0 52.36 0 0 Z " fill="#FCFCFC" transform="translate(617,302)"/>
<path d="M0 0 C10.54548143 -0.06995143 21.09090635 -0.1230381 31.63657379 -0.15543652 C36.53498107 -0.17099732 41.43322796 -0.19205721 46.33154297 -0.22631836 C51.0713302 -0.2592578 55.81096455 -0.27692478 60.55085754 -0.28463173 C62.34628196 -0.2901139 64.14169938 -0.3008162 65.9370575 -0.31719017 C81.86570991 -0.45649483 96.44871108 0.8578536 111 8 C111.69867187 8.34160156 112.39734375 8.68320312 113.1171875 9.03515625 C117.09147657 11.14170003 119.99170697 13.68316409 123 17 C123.48339844 17.50273437 123.96679688 18.00546875 124.46484375 18.5234375 C133.41700683 28.22730893 136.82208388 40.57137157 137.375 53.625 C136.76569885 67.15656297 131.60671756 80.14315125 122.26171875 89.96875 C106.27509976 104.32633527 85.80884207 106.52164842 65.24609375 106.29296875 C63.72339809 106.28735053 62.20069688 106.28309102 60.67799377 106.28010559 C56.73414247 106.26883148 52.79064029 106.23952249 48.84692383 106.20599365 C44.79708576 106.17490892 40.74718944 106.16151956 36.69726562 106.14648438 C28.79801959 106.11462948 20.89905362 106.06365432 13 106 C13.00666183 106.56803848 13.01332367 107.13607697 13.02018738 107.72132874 C13.08728332 113.70877337 13.13210367 119.69610885 13.16479492 125.68383789 C13.17975147 127.90946806 13.20012407 130.13506943 13.22631836 132.3605957 C13.2632865 135.58552213 13.27985801 138.81005437 13.29296875 142.03515625 C13.30845261 143.00767838 13.32393646 143.9802005 13.33988953 144.98219299 C13.34192472 153.603402 11.77846721 160.10766395 10 169 C-3.53 169 -17.06 169 -31 169 C-30.41721974 162.58941713 -29.87206355 156.60004722 -28.765625 150.33203125 C-28.64744415 149.65805298 -28.52926331 148.98407471 -28.40750122 148.28967285 C-28.02678212 146.1296709 -27.638827 143.97105592 -27.25 141.8125 C-27.11716614 141.06600189 -26.98433228 140.31950378 -26.84747314 139.55038452 C-24.99694854 129.15244281 -22.98863924 118.80071404 -20.76367188 108.47558594 C-19.02993882 100.36883088 -17.59510522 92.22281425 -16.25537109 84.04223633 C-16.10406738 83.1323999 -15.95276367 82.22256348 -15.796875 81.28515625 C-15.66635742 80.47957275 -15.53583984 79.67398926 -15.40136719 78.84399414 C-15 77 -15 77 -14 76 C-11.1469376 75.90131175 -8.31738384 75.86701519 -5.46386719 75.87402344 C-4.11971741 75.87122124 -4.11971741 75.87122124 -2.74841309 75.86836243 C-0.79334553 75.86434665 1.16172676 75.86228252 3.1167984 75.86190033 C7.28481847 75.85848992 11.45268187 75.83712198 15.62064743 75.81666946 C23.38481273 75.77867248 31.14881716 75.74737209 38.91308594 75.74951172 C44.30910342 75.75030323 49.70455597 75.72673805 55.10042572 75.6876297 C57.14947717 75.67722515 59.19859429 75.6756044 61.24765778 75.68328094 C79.08020243 76.03352902 79.08020243 76.03352902 94.81402588 68.48675537 C99.88460117 62.76723296 100.45855212 57.67694959 100.30078125 50.26171875 C99.78028839 44.61741307 98.2901191 41.04736647 94.046875 37.25390625 C86.53054504 31.77434402 78.47715078 30.70763507 69.35913086 30.68115234 C68.54827026 30.67110672 67.73740967 30.6610611 66.90197754 30.65071106 C64.25627265 30.62013928 61.61066768 30.6029172 58.96484375 30.5859375 C57.11681778 30.56720486 55.26880018 30.54762992 53.42079163 30.5272522 C48.58270217 30.47614629 43.74458505 30.4364059 38.90637207 30.39910889 C33.95899737 30.35893346 29.01173561 30.30790319 24.06445312 30.2578125 C14.37638167 30.1613086 4.68824612 30.07682289 -5 30 C-4.54927492 26.49897713 -4.08802697 22.99941539 -3.625 19.5 C-3.43550781 18.02660156 -3.43550781 18.02660156 -3.2421875 16.5234375 C-3.11328125 15.55664062 -2.984375 14.58984375 -2.8515625 13.59375 C-2.73635254 12.71396484 -2.62114258 11.83417969 -2.50244141 10.92773438 C-1.86654194 7.22233768 -0.94386136 3.63914777 0 0 Z " fill="#54D9D7" transform="translate(796,302)"/>
<path d="M0 0 C0.70082703 -0.00095673 1.40165405 -0.00191345 2.12371826 -0.00289917 C3.59615164 -0.00357665 5.06858807 -0.00175262 6.54101562 0.00244141 C8.80345258 0.00782816 11.06569391 0.00246541 13.328125 -0.00390625 C14.76041711 -0.00324602 16.19270909 -0.00196601 17.625 0 C19.58034668 0.00169189 19.58034668 0.00169189 21.57519531 0.00341797 C24.546875 0.1328125 24.546875 0.1328125 25.546875 1.1328125 C25.734375 4.0703125 25.734375 4.0703125 25.546875 7.1328125 C23.05416826 9.62551924 22.25795955 9.38242664 18.8203125 9.40625 C17.87027344 9.426875 16.92023438 9.4475 15.94140625 9.46875 C13.95190588 9.49448739 11.96229517 9.51289637 9.97265625 9.5234375 C2.87871156 9.69529619 -2.58361128 10.67527625 -7.98950195 15.50561523 C-11.11475789 18.91904339 -12.31927253 22.11182842 -13.265625 26.5703125 C-13.58589689 27.98888096 -13.90909154 29.40679107 -14.234375 30.82421875 C-14.41871094 31.64293457 -14.60304688 32.46165039 -14.79296875 33.30517578 C-16.17678877 39.23246997 -17.73630267 45.11671769 -19.265625 51.0078125 C-19.61401832 52.35221234 -19.96240697 53.69661338 -20.31079102 55.04101562 C-21.01195404 57.74499272 -21.71471756 60.44854786 -22.41845703 63.15185547 C-23.09498438 65.75152793 -23.76712885 68.35220709 -24.43701172 70.95361328 C-25.35015054 74.49490177 -26.2750132 78.03292296 -27.203125 81.5703125 C-27.47229736 82.6226709 -27.74146973 83.6750293 -28.01879883 84.75927734 C-31.29157084 97.10742301 -36.46274101 106.45037516 -47.55859375 113.3203125 C-49.453125 114.1328125 -49.453125 114.1328125 -53.453125 114.1328125 C-53.453125 114.7928125 -53.453125 115.4528125 -53.453125 116.1328125 C-52.793125 116.1740625 -52.133125 116.2153125 -51.453125 116.2578125 C-43.39098759 118.60926925 -37.87790176 125.3124804 -33.453125 132.1328125 C-27.57768442 143.19036309 -25.30956362 155.81872103 -22.390625 167.8828125 C-21.87002972 170.00542659 -21.34855109 172.12782423 -20.82617188 174.25 C-16.6741939 191.14947461 -16.6741939 191.14947461 -15.33251953 196.96679688 C-15.16128067 197.69272034 -14.99004181 198.4186438 -14.81361389 199.16656494 C-14.37154354 201.04320339 -13.94024477 202.92237071 -13.51000977 204.80175781 C-11.93346679 209.77065419 -9.77557476 213.82316064 -6.03125 217.53125 C-0.53827967 219.98989392 4.84512619 219.73182233 10.796875 219.7578125 C13.15635588 219.78323794 15.51576853 219.81667398 17.875 219.859375 C18.9155957 219.86533691 19.95619141 219.87129883 21.02832031 219.87744141 C23.546875 220.1328125 23.546875 220.1328125 25.546875 222.1328125 C25.796875 225.1328125 25.796875 225.1328125 25.546875 228.1328125 C22.08873453 231.59095297 17.05910734 230.43669173 12.38671875 230.45507812 C11.65308105 230.45290283 10.91944336 230.45072754 10.16357422 230.44848633 C7.95098352 230.44535371 5.73976631 230.46867923 3.52734375 230.49414062 C-5.2074839 230.53437332 -13.26619291 230.49555464 -20.203125 224.3828125 C-20.73421875 223.93421875 -21.2653125 223.485625 -21.8125 223.0234375 C-27.04592115 216.99254265 -28.64247205 210.43648852 -30.390625 202.8203125 C-30.9081917 200.65577931 -31.42773806 198.49171856 -31.94921875 196.328125 C-32.20300293 195.26883789 -32.45678711 194.20955078 -32.71826172 193.11816406 C-33.87870045 188.40392992 -35.21745937 183.74583606 -36.56274414 179.08178711 C-37.79411769 174.73177852 -38.86987701 170.37057611 -39.8515625 165.95703125 C-44.17797637 143.88420251 -44.17797637 143.88420251 -58.32421875 127.328125 C-62.29805315 125.09694458 -65.62110982 124.21742421 -70.140625 123.7578125 C-73.453125 123.1328125 -73.453125 123.1328125 -75.390625 121.5703125 C-77.02717889 117.81586534 -76.90817158 115.22823174 -76.453125 111.1328125 C-75.015625 109.1953125 -75.015625 109.1953125 -72.453125 108.1328125 C-71.10037642 108.0289708 -69.74576787 107.94838393 -68.390625 107.8828125 C-61.21928552 107.25561614 -55.1701605 103.33824074 -50.5625 97.90234375 C-43.93947896 87.65004098 -41.77638245 74.79961728 -38.9921875 63.08984375 C-38.67680078 61.78696504 -38.36056901 60.48429063 -38.04354858 59.18180847 C-36.71580767 53.72654208 -35.39112655 48.2706738 -34.09472656 42.80786133 C-33.29420692 39.43701943 -32.47705565 36.07057279 -31.64936447 32.70630455 C-31.19343866 30.8338197 -30.75508459 28.95708358 -30.31729126 27.08027649 C-27.68759852 16.46307547 -24.18190424 8.15822974 -14.69921875 2.19140625 C-9.93791094 -0.05261882 -5.19712649 0.00448139 0 0 Z " fill="#57BCC6" transform="translate(578.453125,264.8671875)"/>
<path d="M0 0 C1.57404494 -0.0164349 3.14801921 -0.04355705 4.72167969 -0.08203125 C15.20473612 -0.33687778 23.66881668 -0.1279922 31.97705078 7.12084961 C41.64391935 16.83710193 43.06924355 35.59757861 45.9128418 48.45727539 C47.60713393 56.04559795 49.46564263 63.58725377 51.42974854 71.10964966 C51.9332313 73.04520643 52.42564249 74.98363259 52.91772461 76.92211914 C55.35158466 86.13724651 57.87192952 95.58023005 65.51000977 101.85009766 C66.62569336 102.79369141 66.62569336 102.79369141 67.76391602 103.75634766 C71.37564548 106.39245789 73.9120183 107.51530678 78.38500977 107.66259766 C81.95120371 108.00391655 82.94772359 108.35025039 86.01000977 110.53759766 C87.94750977 113.35009766 87.94750977 113.35009766 88.51000977 116.41259766 C87.81179459 120.05883245 86.79371192 121.02051707 83.94750977 123.35009766 C81.21313477 124.18603516 81.21313477 124.18603516 78.19750977 124.72509766 C70.19513602 126.52075225 64.52153354 130.489062 59.94750977 137.35009766 C55.91751713 144.36095261 54.23030093 151.50087133 52.44750977 159.35009766 C52.14219658 160.65983959 51.83579273 161.96932773 51.52832031 163.27856445 C50.92898965 165.83329128 50.33412502 168.38890168 49.74194336 170.9453125 C48.78919741 175.02859308 47.79021497 179.09827707 46.76000977 183.16259766 C45.80194085 186.95393021 44.84841214 190.74573161 43.92407227 194.54541016 C40.41554086 208.91657841 40.41554086 208.91657841 37.94750977 215.35009766 C37.55563477 216.38134766 37.16375977 217.41259766 36.76000977 218.47509766 C32.88884773 224.61556158 27.9274167 228.42913876 20.94750977 230.35009766 C18.26002924 230.54586401 15.67947886 230.65434293 12.99438477 230.65087891 C12.25295227 230.65516403 11.51151978 230.65944916 10.74761963 230.66386414 C9.19121315 230.66957642 7.63478 230.67013073 6.07836914 230.66577148 C3.69054468 230.66258837 1.30393341 230.68618662 -1.08374023 230.71142578 C-2.59936367 230.71369672 -4.11499044 230.71440323 -5.63061523 230.71337891 C-6.70246063 230.72719353 -6.70246063 230.72719353 -7.79595947 230.74128723 C-9.79956055 230.72241211 -9.79956055 230.72241211 -13.05249023 230.35009766 C-15.05249023 227.35009766 -15.05249023 227.35009766 -14.67749023 224.16259766 C-14.36811523 222.77041016 -14.36811523 222.77041016 -14.05249023 221.35009766 C-13.47394287 221.34075195 -12.89539551 221.33140625 -12.29931641 221.32177734 C5.16373731 221.55495701 5.16373731 221.55495701 20.38500977 214.22509766 C27.08053043 201.90533963 29.38132723 187.90143573 32.44750977 174.35009766 C42.93171958 128.02729111 42.93171958 128.02729111 61.94750977 115.35009766 C61.22305664 114.93759766 60.49860352 114.52509766 59.75219727 114.10009766 C47.66402802 106.87943123 41.91794657 97.36053605 38.51000977 83.88916016 C38.3031958 83.09972015 38.09638184 82.31028015 37.88330078 81.49691772 C37.44902145 79.83236471 37.01898425 78.16669963 36.59301758 76.5 C35.95743722 74.01392889 35.30922296 71.53144798 34.65844727 69.04931641 C32.35757523 60.21216057 30.24201885 51.35073616 28.29431152 42.42930603 C27.16107773 37.25287463 25.93904916 32.1242613 24.44750977 27.03759766 C24.16713867 26.00602539 24.16713867 26.00602539 23.88110352 24.95361328 C22.38090564 19.79233648 20.47226262 15.95161999 15.85375977 13.02197266 C8.50509782 10.2065762 1.4711808 9.82979893 -6.32202148 9.76513672 C-7.16249023 9.75063477 -8.00295898 9.73613281 -8.86889648 9.72119141 C-9.62630127 9.72046631 -10.38370605 9.71974121 -11.1640625 9.71899414 C-11.78724365 9.5972583 -12.4104248 9.47552246 -13.05249023 9.35009766 C-15.20058195 6.12796009 -15.34635176 5.07234365 -15.05249023 1.35009766 C-12.40451153 -1.29788105 -3.71767943 0.02837631 0 0 Z " fill="#58BDC7" transform="translate(945.052490234375,264.64990234375)"/>
<path d="M0 0 C5.919375 -0.0825 11.83875 -0.165 17.9375 -0.25 C19.78722412 -0.28641602 21.63694824 -0.32283203 23.54272461 -0.36035156 C33.49894729 -0.47496976 40.99231085 -0.15531653 48.9375 6.4375 C52.40135572 10.74107832 53.47498033 14.28652687 53.31640625 19.87890625 C52.54650548 25.04009293 50.12263685 28.90474453 46.4375 32.5 C44 34 44 34 41 34 C43.71219872 38.98715044 46.70061126 43.39124106 50.25 47.8125 C55 53.72998596 55 53.72998596 55 56 C43.2704133 57.30621944 43.2704133 57.30621944 38 56 C34.4525237 52.88837227 32.8382504 49.29309262 31 45 C29.65222344 42.21266281 28.50912009 39.86711518 26 38 C21.89093261 37.11024131 18.24430188 37.04664068 14 37 C14 43.27 14 49.54 14 56 C9.38 56 4.76 56 0 56 C0 37.52 0 19.04 0 0 Z " fill="#F7F7F8" transform="translate(468,580)"/>
<path d="M0 0 C14 0 14 0 17.23828125 2.01953125 C17.92277344 2.94121094 18.60726562 3.86289062 19.3125 4.8125 C20.49779297 6.32263672 20.49779297 6.32263672 21.70703125 7.86328125 C22.46371094 8.89839844 23.22039063 9.93351563 24 11 C25.49072742 12.84088101 26.99055221 14.67443749 28.5 16.5 C29.985 18.315 31.47 20.13 33 22 C36.3 25.63 39.6 29.26 43 33 C43.33 22.11 43.66 11.22 44 0 C48.62 0 53.24 0 58 0 C58 18.48 58 36.96 58 56 C53.38 56 48.76 56 44 56 C40.65735335 52.60819678 38.55446772 49.8811261 36 46 C34.38744303 44.15783181 32.74020306 42.34554123 31.0625 40.5625 C26.78159154 35.91768124 22.76814516 31.13820924 18.8125 26.21484375 C17.03873643 23.97246433 17.03873643 23.97246433 15 22 C14.67 33.22 14.34 44.44 14 56 C9.38 56 4.76 56 0 56 C0 37.52 0 19.04 0 0 Z " fill="#F7F7F8" transform="translate(802,580)"/>
<path d="M0 0 C14 0 14 0 17.53515625 2.53515625 C18.83789062 4.21704102 18.83789062 4.21704102 20.0625 6.0625 C21.03062862 7.34520401 22.00075646 8.62640102 22.97265625 9.90625 C23.46008301 10.5765625 23.94750977 11.246875 24.44970703 11.9375 C27.10930029 15.47580611 30.06766923 18.75004463 33 22.0625 C34.0645623 23.28075303 35.12717187 24.50071615 36.1875 25.72265625 C36.63480469 26.23578369 37.08210937 26.74891113 37.54296875 27.27758789 C39.40697655 29.48110248 41.19702126 31.74627657 43 34 C43.33 22.78 43.66 11.56 44 0 C48.62 0 53.24 0 58 0 C58 18.48 58 36.96 58 56 C44 56 44 56 40.3125 52.8125 C39.19287733 51.21908235 38.09082897 49.6132659 37 48 C35.22632849 45.85579189 33.43851349 43.73459103 31.625 41.625 C30.68076038 40.5054016 29.73674925 39.38561046 28.79296875 38.265625 C25.54184574 34.43865316 22.17422092 30.72130379 18.77734375 27.0234375 C17 25 17 25 15 22 C14.67 33.22 14.34 44.44 14 56 C9.38 56 4.76 56 0 56 C0 37.52 0 19.04 0 0 Z " fill="#F7F7F8" transform="translate(608,580)"/>
<path d="M0 0 C13 0 13 0 17.25 3.3125 C18.53782823 4.84397141 19.78648241 6.4089999 21 8 C22.39510414 9.68810289 23.79098185 11.37556669 25.1875 13.0625 C25.92226563 13.97773437 26.65703125 14.89296875 27.4140625 15.8359375 C32.43075561 22.03729549 37.76067694 27.98856618 43 34 C43.33 22.78 43.66 11.56 44 0 C48.62 0 53.24 0 58 0 C58 18.48 58 36.96 58 56 C44 56 44 56 39.1875 51.6875 C37.75857761 49.81648008 36.3630177 47.91956179 35 46 C33.55399092 44.19837205 32.09548899 42.40670359 30.625 40.625 C29.53058594 39.26955078 29.53058594 39.26955078 28.4140625 37.88671875 C25.24780716 34.10053316 21.91836076 30.48173914 18.54150391 26.88330078 C15.09843538 23.19687076 15.09843538 23.19687076 14 21 C13.67 32.22 13.34 43.44 13 55 C8.71 55 4.42 55 0 55 C0 36.85 0 18.7 0 0 Z " fill="#F8F8F8" transform="translate(361,580)"/>
<path d="M0 0 C8.4459375 -0.0928125 8.4459375 -0.0928125 17.0625 -0.1875 C18.82601807 -0.21481201 20.58953613 -0.24212402 22.40649414 -0.27026367 C23.82437457 -0.27903602 25.24226264 -0.28667818 26.66015625 -0.29296875 C27.38005737 -0.30831665 28.0999585 -0.32366455 28.8416748 -0.33947754 C36.74661619 -0.34351548 42.32239348 2.5864682 48 8 C51.46415067 13.23760664 50.54395043 20.00957153 50 26 C47.6586896 31.5606122 43.29888098 34.40230639 38 37 C34.94339241 37.93574659 32.20507592 38.11710412 29.015625 38.09765625 C28.08105469 38.09443359 27.14648438 38.09121094 26.18359375 38.08789062 C25.21550781 38.07951172 24.24742187 38.07113281 23.25 38.0625 C21.77466797 38.05573242 21.77466797 38.05573242 20.26953125 38.04882812 C17.84632806 38.037065 15.42315623 38.01913018 13 38 C13 43.61 13 49.22 13 55 C8.71 55 4.42 55 0 55 C0 36.85 0 18.7 0 0 Z " fill="#FAFAFB" transform="translate(907,580)"/>
<path d="M0 0 C1.39456867 0.00574201 2.78910972 0.01875397 4.18359375 0.03515625 C6.15380493 0.05171265 6.15380493 0.05171265 8.16381836 0.06860352 C9.30471924 0.07819092 10.44562012 0.08777832 11.62109375 0.09765625 C16.94318405 10.70111348 22.22715899 21.32250103 27.43286133 31.98364258 C28.19354315 33.53882529 28.9566275 35.09283481 29.72192383 36.64575195 C30.84882706 38.93303079 31.96816785 41.2238716 33.0859375 43.515625 C33.42753403 44.20520798 33.76913055 44.89479095 34.12107849 45.60527039 C35.86979734 49.21278533 36.82189278 52.10165142 37.62109375 56.09765625 C32.67109375 56.09765625 27.72109375 56.09765625 22.62109375 56.09765625 C20.97109375 52.46765625 19.32109375 48.83765625 17.62109375 45.09765625 C8.71109375 45.09765625 -0.19890625 45.09765625 -9.37890625 45.09765625 C-11.02890625 48.72765625 -12.67890625 52.35765625 -14.37890625 56.09765625 C-19.32890625 56.09765625 -24.27890625 56.09765625 -29.37890625 56.09765625 C-27.91780039 51.71433867 -26.45133528 47.97132368 -24.4375 43.87109375 C-24.15360413 43.28931366 -23.86970825 42.70753357 -23.57720947 42.10812378 C-22.97198751 40.86796043 -22.36527239 39.62852481 -21.75717163 38.38977051 C-16.63436117 27.95038448 -11.64059091 17.47116066 -6.95678711 6.82568359 C-3.99632763 0.1155008 -3.99632763 0.1155008 0 0 Z " fill="#F8F8F8" transform="translate(990.37890625,579.90234375)"/>
<path d="M0 0 C4.95 0 9.9 0 15 0 C18.65234375 7.3046875 22.3046875 14.609375 25.95703125 21.9140625 C26.46685547 22.9335498 26.97667969 23.95303711 27.50195312 25.00341797 C28.54153661 27.08291021 29.58059995 29.16266255 30.61914062 31.24267578 C32.84228811 35.69395219 35.06799248 40.14350777 37.32421875 44.578125 C37.65607178 45.23280762 37.9879248 45.88749023 38.32983398 46.56201172 C39.18053194 48.23812819 40.03539449 49.91212921 40.890625 51.5859375 C42 54 42 54 42 56 C36.72 56 31.44 56 26 56 C24.35 52.37 22.7 48.74 21 45 C12.09 44.67 3.18 44.34 -6 44 C-6.66 45.98 -7.32 47.96 -8 50 C-8.66 51.98 -9.32 53.96 -10 56 C-15.28 56 -20.56 56 -26 56 C-24.47671454 51.43014363 -22.81198818 47.42021953 -20.625 43.1875 C-16.90116135 35.85940362 -13.30689717 28.47297463 -9.75 21.0625 C-9.24291504 20.00893311 -8.73583008 18.95536621 -8.21337891 17.86987305 C-5.37672938 11.95355302 -2.63217655 6.01013645 0 0 Z " fill="#F7F7F8" transform="translate(750,580)"/>
<path d="M0 0 C5.28 0 10.56 0 16 0 C16.70125 1.546875 17.4025 3.09375 18.125 4.6875 C23.53274702 16.57650646 29.05549219 28.37051591 35 40 C36.33824081 42.62254102 37.67056894 45.2479846 39 47.875 C39.5775 49.00679687 40.155 50.13859375 40.75 51.3046875 C42 54 42 54 42 56 C36.72 56 31.44 56 26 56 C24.45805003 51.97752182 23.04590353 48.18361411 22 44 C12.76 44 3.52 44 -6 44 C-6.99 46.97 -7.98 49.94 -9 53 C-9.33 53.66 -9.66 54.32 -10 55 C-14.95 55 -19.9 55 -25 55 C-22.83398062 47.98382428 -20.03135702 41.5303931 -16.8125 34.9375 C-16.3278125 33.93396484 -15.843125 32.93042969 -15.34375 31.89648438 C-12.13915776 25.28014288 -8.88885634 18.68623501 -5.55004883 12.13647461 C-3.51957682 8.13487517 -1.77639502 4.14492172 0 0 Z " fill="#F8F8F9" transform="translate(555,580)"/>
<path d="M0 0 C17.82 0 35.64 0 54 0 C54 3.96 54 7.92 54 12 C47.4 12 40.8 12 34 12 C34 26.52 34 41.04 34 56 C29.38 56 24.76 56 20 56 C20 41.15 20 26.3 20 11 C13.4 11 6.8 11 0 11 C0 7.37 0 3.74 0 0 Z " fill="#F4F4F5" transform="translate(1030,580)"/>
<path d="M0 0 C4.62 0 9.24 0 14 0 C14 14.52 14 29.04 14 44 C25.88 44 37.76 44 50 44 C50 47.96 50 51.92 50 56 C43.03996034 56.02464201 36.07994584 56.04283222 29.11987305 56.05493164 C26.75007688 56.05997341 24.38028385 56.06680665 22.01049805 56.07543945 C18.61245961 56.0875119 15.21446215 56.09322971 11.81640625 56.09765625 C10.74975235 56.10281754 9.68309845 56.10797882 8.5841217 56.11329651 C7.60318039 56.11337204 6.62223907 56.11344757 5.61157227 56.11352539 C4.30918358 56.11685631 4.30918358 56.11685631 2.98048401 56.12025452 C1 56 1 56 0 55 C-0.0935919 53.28134591 -0.11744611 51.55884256 -0.11352539 49.83764648 C-0.11344986 48.73658066 -0.11337433 47.63551483 -0.11329651 46.50108337 C-0.10813522 45.3031868 -0.10297394 44.10529022 -0.09765625 42.87109375 C-0.0962413 41.65172623 -0.09482635 40.4323587 -0.09336853 39.17604065 C-0.08774967 35.2631693 -0.07519396 31.35035419 -0.0625 27.4375 C-0.05748743 24.79231853 -0.0529241 22.14713617 -0.04882812 19.50195312 C-0.03777411 13.00128026 -0.02049683 6.50064968 0 0 Z " fill="#F2F2F3" transform="translate(1127,580)"/>
<path d="M0 0 C4.62 0 9.24 0 14 0 C14.07442019 5.85324352 14.12872982 11.7062087 14.16479492 17.55981445 C14.17983724 19.5491211 14.20027623 21.53839483 14.22631836 23.52758789 C14.26290246 26.39477689 14.27977218 29.26152559 14.29296875 32.12890625 C14.30845261 33.01147598 14.32393646 33.89404572 14.33988953 34.80335999 C14.34174998 41.70303847 13.1889778 46.40778945 8.625 51.8125 C3.81232004 55.82306663 -0.67914641 56.3886233 -6.8125 56.375 C-7.52229004 56.37411377 -8.23208008 56.37322754 -8.96337891 56.37231445 C-14.73879074 56.24168803 -18.30074995 55.28947503 -23 52 C-23.66 51.01 -24.32 50.02 -25 49 C-22.69 46.36 -20.38 43.72 -18 41 C-13.25 42.875 -13.25 42.875 -11 44 C-8.81615583 43.97744148 -8.81615583 43.97744148 -6.4375 43.6875 C-5.63183594 43.60886719 -4.82617188 43.53023437 -3.99609375 43.44921875 C-3.33738281 43.30097656 -2.67867187 43.15273438 -2 43 C-0.28311866 39.56623732 -0.75490998 35.61885635 -0.68359375 31.8359375 C-0.66281265 30.92872955 -0.64203156 30.02152161 -0.62062073 29.08682251 C-0.55512865 26.1829602 -0.49624186 23.27900595 -0.4375 20.375 C-0.39431445 18.40884458 -0.35070015 16.44269853 -0.30664062 14.4765625 C-0.19944761 9.65113638 -0.09817919 4.8256176 0 0 Z " fill="#F8F8F8" transform="translate(700,580)"/>
<path d="M0 0 C4.62 0 9.24 0 14 0 C14 18.48 14 36.96 14 56 C9.38 56 4.76 56 0 56 C0 37.52 0 19.04 0 0 Z " fill="#F5F5F6" transform="translate(436,580)"/>
<path d="M0 0 C4.62 0 9.24 0 14 0 C14 18.48 14 36.96 14 56 C9.38 56 4.76 56 0 56 C0 37.52 0 19.04 0 0 Z " fill="#F3F3F4" transform="translate(1096,580)"/>
<path d="M0 0 C4.62330253 1.72240683 7.47468782 3.72639477 10 8 C10.65808431 13.17066246 9.94143535 16.68589482 7 21 C2.58998658 24.33440039 -1.36256751 24.42032238 -6.65625 23.71875 C-10.57429038 22.51721762 -11.84240894 20.41038587 -14 17 C-15.60127074 13.79745853 -15.40701607 11.54685436 -15 8 C-10.91923136 1.63400091 -7.65457382 -0.51030492 0 0 Z " fill="#5DCEC9" transform="translate(977,672)"/>
<path d="M0 0 C15.26785714 -0.66964286 15.26785714 -0.66964286 18.875 2.375 C22.24924716 6.54318767 22.39624625 9.75495093 22 15 C21.13867629 17.89717974 20.31289055 18.76182958 17.90625 20.59375 C14.26475449 22.35576396 11.12903521 22.33345089 7.1875 22.1875 C4.815625 22.125625 2.44375 22.06375 0 22 C0 14.74 0 7.48 0 0 Z " fill="#58D6D0" transform="translate(793,673)"/>
<path d="M0 0 C3.25049988 -0.08096264 6.49898234 -0.14048115 9.75 -0.1875 C11.13058594 -0.22520508 11.13058594 -0.22520508 12.5390625 -0.26367188 C13.42851562 -0.27333984 14.31796875 -0.28300781 15.234375 -0.29296875 C16.05131836 -0.3086792 16.86826172 -0.32438965 17.70996094 -0.34057617 C20.5745884 0.08545318 21.91180705 1.02062756 24 3 C24.9220483 6.09544787 25.24273921 8.12613883 24.375 11.25 C22.45101441 13.69870894 21.00571045 14.09867874 18 15 C14.89070574 15.23482782 11.80330936 15.18893926 8.6875 15.125 C7.85154297 15.11597656 7.01558594 15.10695313 6.15429688 15.09765625 C4.10274031 15.07420989 2.05133223 15.03834266 0 15 C0 10.05 0 5.1 0 0 Z " fill="#1C1E2B" transform="translate(482,591)"/>
<path d="M0 0 C2.578125 -0.061875 5.15625 -0.12375 7.8125 -0.1875 C9.02450073 -0.22846802 9.02450073 -0.22846802 10.26098633 -0.27026367 C15.45700569 -0.33088716 15.45700569 -0.33088716 18 1.21875 C19.29090754 3.51817906 19.30152349 5.06495982 19.1875 7.6875 C19.16042969 8.49574219 19.13335938 9.30398438 19.10546875 10.13671875 C19.05326172 11.05904297 19.05326172 11.05904297 19 12 C17.02 12.99 17.02 12.99 15 14 C15.3609375 14.48210938 15.721875 14.96421875 16.09375 15.4609375 C16.5578125 16.09257813 17.021875 16.72421875 17.5 17.375 C17.9640625 18.00148438 18.428125 18.62796875 18.90625 19.2734375 C20 21 20 21 20 23 C17.75 23.375 17.75 23.375 15 23 C11 18.02702703 11 18.02702703 11 15 C8.69 15 6.38 15 4 15 C4 17.64 4 20.28 4 23 C2.68 23 1.36 23 0 23 C0 15.41 0 7.82 0 0 Z " fill="#6AE0DE" transform="translate(1070,673)"/>
<path d="M0 0 C16.23585225 -0.43104033 16.23585225 -0.43104033 22 3 C23 4 23 4 23.375 7.25 C23 11 23 11 21.05859375 13.71484375 C16.85598709 16.85472229 13.77722731 16.57361466 8.6875 16.3125 C7.85154297 16.28994141 7.01558594 16.26738281 6.15429688 16.24414062 C4.10208851 16.1855061 2.05080798 16.09583215 0 16 C0 10.72 0 5.44 0 0 Z " fill="#1C1E2B" transform="translate(920,591)"/>
<path d="M0 0 C13.3107415 -0.4033558 13.3107415 -0.4033558 18 3 C19.57922406 4.57922406 19.207659 6.19443874 19.25 8.375 C19.27578125 9.16648437 19.3015625 9.95796875 19.328125 10.7734375 C18.92231616 13.52714035 18.18894879 14.33271658 16 16 C13.11788698 16.96070434 11.30149956 17.10581883 8.3125 17.0625 C7.10013672 17.04896484 7.10013672 17.04896484 5.86328125 17.03515625 C5.24839844 17.02355469 4.63351562 17.01195312 4 17 C4 19.31 4 21.62 4 24 C2.68 24 1.36 24 0 24 C0 16.08 0 8.16 0 0 Z " fill="#56C0BB" transform="translate(1002,672)"/>
<path d="M0 0 C5.94 0 11.88 0 18 0 C18 1.65 18 3.3 18 5 C13.71 5 9.42 5 5 5 C5 6.65 5 8.3 5 10 C8.96 10 12.92 10 17 10 C17 11.32 17 12.64 17 14 C12.71 14 8.42 14 4 14 C4 15.98 4 17.96 4 20 C8.95 20 13.9 20 19 20 C19 21.32 19 22.64 19 24 C12.73 24 6.46 24 0 24 C0 16.08 0 8.16 0 0 Z " fill="#4EBCBB" transform="translate(830,672)"/>
<path d="M0 0 C5.94 0 11.88 0 18 0 C18 1.65 18 3.3 18 5 C13.71 5 9.42 5 5 5 C5 6.65 5 8.3 5 10 C8.96 10 12.92 10 17 10 C17 11.32 17 12.64 17 14 C12.71 14 8.42 14 4 14 C4 15.98 4 17.96 4 20 C8.62 20 13.24 20 18 20 C18 21.32 18 22.64 18 24 C12.06 24 6.12 24 0 24 C0 16.08 0 8.16 0 0 Z " fill="#4CA6A7" transform="translate(1036,672)"/>
<path d="M0 0 C2.40893555 0.17822266 2.40893555 0.17822266 5 1 C6.39379883 2.81005859 6.39379883 2.81005859 7.45703125 5.1484375 C8.04194336 6.40914062 8.04194336 6.40914062 8.63867188 7.6953125 C9.2197168 9.02175781 9.2197168 9.02175781 9.8125 10.375 C10.42254883 11.68984375 10.42254883 11.68984375 11.04492188 13.03125 C14 19.52745536 14 19.52745536 14 23 C12.68 23 11.36 23 10 23 C9.34 21.68 8.68 20.36 8 19 C4.04 19 0.08 19 -4 19 C-4.66 20.32 -5.32 21.64 -6 23 C-7.32 23 -8.64 23 -10 23 C-9.35592303 17.96814871 -7.1775132 13.76491374 -5 9.25 C-4.63132812 8.47011719 -4.26265625 7.69023438 -3.8828125 6.88671875 C-1.14835963 1.14835963 -1.14835963 1.14835963 0 0 Z " fill="#71E3E3" transform="translate(673,672)"/>
<path d="M0 0 C1.65 0 3.3 0 5 0 C5.33 3.3 5.66 6.6 6 10 C6.59167969 9.3503125 7.18335938 8.700625 7.79296875 8.03125 C8.58316406 7.1959375 9.37335937 6.360625 10.1875 5.5 C10.96480469 4.6646875 11.74210938 3.829375 12.54296875 2.96875 C15 1 15 1 17.80078125 0.71875 C18.88939453 0.85796875 18.88939453 0.85796875 20 1 C18.44499019 4.81684226 15.96404505 7.19195732 13 10 C14.76980402 13.83171162 17.15601771 16.8963861 19.7578125 20.1953125 C21 22 21 22 21 24 C18.73828125 24.28125 18.73828125 24.28125 16 24 C13.98046875 22.03125 13.98046875 22.03125 12.1875 19.5 C11.58292969 18.6646875 10.97835937 17.829375 10.35546875 16.96875 C9.90816406 16.3190625 9.46085938 15.669375 9 15 C8.01 15.66 7.02 16.32 6 17 C5.26393501 20.56769552 5.26393501 20.56769552 5 24 C3.35 24 1.7 24 0 24 C0 16.08 0 8.16 0 0 Z " fill="#59BBB9" transform="translate(736,672)"/>
<path d="M0 0 C5.94 0 11.88 0 18 0 C18 1.32 18 2.64 18 4 C13.38 4 8.76 4 4 4 C4 6.31 4 8.62 4 11 C7.96 11 11.92 11 16 11 C16 11.99 16 12.98 16 14 C12.37 14 8.74 14 5 14 C5 15.98 5 17.96 5 20 C9.62 20 14.24 20 19 20 C19 21.32 19 22.64 19 24 C12.73 24 6.46 24 0 24 C0 16.08 0 8.16 0 0 Z " fill="#52BDB9" transform="translate(899,672)"/>
<path d="M0 0 C0.77601563 0.09023438 1.55203125 0.18046875 2.3515625 0.2734375 C4.375 0.625 4.375 0.625 6.375 1.625 C6.045 2.945 5.715 4.265 5.375 5.625 C4.859375 5.46 4.34375 5.295 3.8125 5.125 C0.64136124 4.47451 -2.39718334 4.5629266 -5.625 4.625 C-5.955 5.945 -6.285 7.265 -6.625 8.625 C-5.61179687 8.78935547 -5.61179687 8.78935547 -4.578125 8.95703125 C-3.68609375 9.11558594 -2.7940625 9.27414062 -1.875 9.4375 C-0.55242188 9.66373047 -0.55242188 9.66373047 0.796875 9.89453125 C3.5660911 10.67914248 5.2009401 11.77095359 7.375 13.625 C7.01162961 20.04454359 7.01162961 20.04454359 4.25 22.5625 C-0.71092874 24.39588671 -4.74853965 24.16728621 -9.5625 22.125 C-10.573125 21.63 -11.58375 21.135 -12.625 20.625 C-11.965 19.305 -11.305 17.985 -10.625 16.625 C-10.13 16.955 -9.635 17.285 -9.125 17.625 C-5.53409106 19.06136358 -2.48043873 18.75351462 1.375 18.625 C1.705 17.635 2.035 16.645 2.375 15.625 C1.69953125 15.44324219 1.0240625 15.26148438 0.328125 15.07421875 C-0.56390625 14.82285156 -1.4559375 14.57148437 -2.375 14.3125 C-3.25671875 14.06886719 -4.1384375 13.82523438 -5.046875 13.57421875 C-7.73228134 12.58550096 -9.53320494 11.57253333 -11.625 9.625 C-12.0937293 6.41085622 -12.249109 4.52995805 -10.375 1.8125 C-7.00841633 -0.47196749 -3.9485004 -0.48861042 0 0 Z " fill="#5BD0CD" transform="translate(611.625,672.375)"/>
<path d="M0 0 C1.32 0 2.64 0 4 0 C4.04898437 1.20398438 4.09796875 2.40796875 4.1484375 3.6484375 C4.22346343 5.22398198 4.29901133 6.79950166 4.375 8.375 C4.4059375 9.1690625 4.436875 9.963125 4.46875 10.78125 C4.51816421 15.36667375 4.51816421 15.36667375 7 19 C10 19.41666667 10 19.41666667 13 19 C15.40119059 15.39821412 15.43771322 12.49133631 15.625 8.3125 C15.68300781 7.2596582 15.68300781 7.2596582 15.7421875 6.18554688 C15.8362334 4.45745345 15.9191968 2.72876325 16 1 C17.32 1 18.64 1 20 1 C20.16250994 3.89809389 20.28107636 6.78704851 20.375 9.6875 C20.45041016 10.91243164 20.45041016 10.91243164 20.52734375 12.16210938 C20.67108532 18.0794705 20.67108532 18.0794705 18.77832031 20.67578125 C16.11577548 23.02163573 13.5926215 24.69984628 10 24.625 C9.38125 24.63789062 8.7625 24.65078125 8.125 24.6640625 C4.6566487 23.58020272 2.09854186 21.93225513 0 19 C-0.72305236 15.69545927 -0.5705745 12.54987692 -0.375 9.1875 C-0.34792969 8.30384766 -0.32085937 7.42019531 -0.29296875 6.50976562 C-0.22255869 4.33878886 -0.11494606 2.16907471 0 0 Z " fill="#5CCBC9" transform="translate(480,672)"/>
<path d="M0 0 C5.94 0 11.88 0 18 0 C18 1.32 18 2.64 18 4 C13.38 4 8.76 4 4 4 C4 6.31 4 8.62 4 11 C8.29 11 12.58 11 17 11 C17 12.32 17 13.64 17 15 C13.04 15 9.08 15 5 15 C5 17.97 5 20.94 5 24 C3.35 24 1.7 24 0 24 C0 16.08 0 8.16 0 0 Z " fill="#57C9C8" transform="translate(447,672)"/>
<path d="M0 0 C0.845625 0.495 1.69125 0.99 2.5625 1.5 C2.2325 2.82 1.9025 4.14 1.5625 5.5 C0.716875 5.149375 -0.12875 4.79875 -1 4.4375 C-4.95260519 3.35951677 -7.47993505 3.51060876 -11.4375 4.5 C-13.76499345 7.99124017 -13.94049316 9.39222251 -13.4375 13.5 C-11.9375 16 -11.9375 16 -9.4375 17.5 C-5.22338709 18.03797186 -2.25211638 17.29511359 1.5625 15.5 C1.8925 16.49 2.2225 17.48 2.5625 18.5 C-0.32578201 21.66335648 -2.42569674 22.40454686 -6.75 22.8125 C-11.11869458 22.44227165 -13.06852201 21.24219139 -16.4375 18.5 C-19.26804764 14.25417853 -19.21159187 10.48515163 -18.4375 5.5 C-14.54777351 -1.98024325 -7.42626428 -3.24055169 0 0 Z " fill="#61D6D1" transform="translate(718.4375,673.5)"/>
<path d="M0 0 C4.10477566 1.26874884 5.42254973 2.28446824 7.4375 6.0625 C7.51826408 10.01993993 6.93588717 11.52139393 4.25 14.4375 C0.85559956 16.39870914 -0.71332287 16.8644119 -4.5625 16.0625 C-7.5 13.4375 -7.5 13.4375 -9.5625 10.0625 C-9.72207397 6.07315066 -9.05455081 4.62691122 -6.4375 1.625 C-3.5625 0.0625 -3.5625 0.0625 0 0 Z " fill="#1D242F" transform="translate(975.5625,675.9375)"/>
<path d="M0 0 C9.12861736 0 9.12861736 0 11.5625 2.0625 C14 5 14 5 14.125 8.5625 C12.88833429 12.34120079 12.37109779 13.89306388 9 16 C5.91831225 16.32410854 3.11512981 16.18324293 0 16 C0 10.72 0 5.44 0 0 Z " fill="#1B202E" transform="translate(797,676)"/>
<path d="M0 0 C2.26171875 0.05859375 2.26171875 0.05859375 5 1 C6.54365573 3.4155077 7.66693722 5.47798805 8.8125 8.0625 C9.864375 10.351875 10.91625 12.64125 12 15 C15.465 7.575 15.465 7.575 19 0 C20.32 0 21.64 0 23 0 C20.66062389 7.66795502 17.45231194 14.77137274 14 22 C12.35 22 10.7 22 9 22 C7.4905412 18.90034597 5.99409333 15.79458597 4.5 12.6875 C4.07074219 11.80642578 3.64148438 10.92535156 3.19921875 10.01757812 C2.79316406 9.17001953 2.38710938 8.32246094 1.96875 7.44921875 C1.59169922 6.66893311 1.21464844 5.88864746 0.82617188 5.0847168 C0 3 0 3 0 0 Z " fill="#57D4CD" transform="translate(862,673)"/>
<path d="M0 0 C3.1474731 2.64652393 4.49972268 5.79939195 6.1875 9.5 C6.71730469 10.6446875 7.24710938 11.789375 7.79296875 12.96875 C9 16 9 16 9 19 C3.39 19 -2.22 19 -8 19 C-6.49073103 14.47219308 -4.89033388 10.41853739 -2.875 6.125 C-2.33617187 4.97257813 -1.79734375 3.82015625 -1.2421875 2.6328125 C-0.62730469 1.32957031 -0.62730469 1.32957031 0 0 Z " fill="#272935" transform="translate(757,595)"/>
<path d="M0 0 C2.70329311 3.29590691 4.41900085 6.75613519 6.1875 10.625 C6.71730469 11.77226563 7.24710938 12.91953125 7.79296875 14.1015625 C9 17 9 17 9 19 C3.39 19 -2.22 19 -8 19 C-5.93991112 12.27760471 -3.28217236 6.21407336 0 0 Z " fill="#282936" transform="translate(994,595)"/>
<path d="M0 0 C3.1474731 2.64652393 4.49972268 5.79939195 6.1875 9.5 C6.71730469 10.6446875 7.24710938 11.789375 7.79296875 12.96875 C9 16 9 16 9 19 C3.39 19 -2.22 19 -8 19 C-6.49073103 14.47219308 -4.89033388 10.41853739 -2.875 6.125 C-2.33617187 4.97257813 -1.79734375 3.82015625 -1.2421875 2.6328125 C-0.62730469 1.32957031 -0.62730469 1.32957031 0 0 Z " fill="#272834" transform="translate(562,595)"/>
<path d="M0 0 C1.32 0 2.64 0 4 0 C4 6.6 4 13.2 4 20 C8.29 20 12.58 20 17 20 C17 21.32 17 22.64 17 24 C11.39 24 5.78 24 0 24 C0 16.08 0 8.16 0 0 Z " fill="#54CAC7" transform="translate(933,672)"/>
<path d="M0 0 C1.32 0 2.64 0 4 0 C4 6.6 4 13.2 4 20 C8.29 20 12.58 20 17 20 C17 21.32 17 22.64 17 24 C11.39 24 5.78 24 0 24 C0 16.08 0 8.16 0 0 Z " fill="#56CDC9" transform="translate(549,672)"/>
<path d="M0 0 C1.32 0 2.64 0 4 0 C4 6.27 4 12.54 4 19 C8.29 19 12.58 19 17 19 C17 20.32 17 21.64 17 23 C11.39 23 5.78 23 0 23 C0 15.41 0 7.82 0 0 Z " fill="#5AD6D3" transform="translate(517,673)"/>
<path d="M0 0 C0.66 0 1.32 0 2 0 C2.103125 1.093125 2.20625 2.18625 2.3125 3.3125 C2.74514528 6.82217915 2.74514528 6.82217915 4.125 8.875 C6.94403684 10.56642211 9.76977183 10.69526149 13 11 C12.67 11.66 12.34 12.32 12 13 C9.66752239 13.33926947 7.33414529 13.67240066 5 14 C2.70424397 16.29575603 2.67660401 17.00842525 2.375 20.125 C2.25125 21.40375 2.1275 22.6825 2 24 C1.34 24 0.68 24 0 24 C-0.24414062 20.97265625 -0.24414062 20.97265625 -0.48828125 17.9453125 C-0.87393036 15.60480784 -0.87393036 15.60480784 -4 14 C-6.32387947 13.60612212 -8.65793749 13.26513915 -11 13 C-11 12.34 -11 11.68 -11 11 C-9.906875 10.896875 -8.81375 10.79375 -7.6875 10.6875 C-4.17782085 10.25485472 -4.17782085 10.25485472 -2.125 8.875 C-0.43357789 6.05596316 -0.30473851 3.23022817 0 0 Z " fill="#54C1C2" transform="translate(1049,338)"/>
<path d="M0 0 C2.3125 0.125 2.3125 0.125 5 1 C6.875 3.875 6.875 3.875 8 7 C7 10 7 10 5 11 C5.33 12.32 5.66 13.64 6 15 C3.36 15 0.72 15 -2 15 C-4.41014799 8.13107822 -4.41014799 8.13107822 -3.2421875 4.91015625 C-2.125 3 -2.125 3 0 0 Z " fill="#59D0CC" transform="translate(673,672)"/>
<path d="M0 0 C6.6 0 13.2 0 20 0 C20 0.99 20 1.98 20 3 C17.36 3 14.72 3 12 3 C12 9.27 12 15.54 12 22 C11.01 22 10.02 22 9 22 C9 15.73 9 9.46 9 3 C6.03 3 3.06 3 0 3 C0 2.01 0 1.02 0 0 Z " fill="#6CEBE9" transform="translate(631,673)"/>
<path d="M0 0 C0.33 0 0.66 0 1 0 C1.268125 1.11375 1.53625 2.2275 1.8125 3.375 C2.65809019 7.21840951 2.65809019 7.21840951 6 9 C10.2209225 9.36703674 13.17742309 8.79885972 17 7 C17.33 7.99 17.66 8.98 18 10 C15.11171799 13.16335648 13.01180326 13.90454686 8.6875 14.3125 C4.31880542 13.94227165 2.36897799 12.74219139 -1 10 C-3 7 -3 7 -3 4 C-2.01 4 -1.02 4 0 4 C0 2.68 0 1.36 0 0 Z " fill="#55C5C6" transform="translate(703,682)"/>
<path d="M0 0 C1.258125 -0.04125 2.51625 -0.0825 3.8125 -0.125 C4.52019531 -0.14820313 5.22789062 -0.17140625 5.95703125 -0.1953125 C8 0 8 0 11 2 C11.3125 4.5 11.3125 4.5 11 7 C9 9 9 9 6.8359375 9.1953125 C4.55729167 9.13020833 2.27864583 9.06510417 0 9 C0 6.03 0 3.06 0 0 Z " fill="#1E2839" transform="translate(1006,676)"/>
<path d="M0 0 C0.66 0 1.32 0 2 0 C2.1953125 2.01822917 2.390625 4.03645833 2.5859375 6.0546875 C2.86374749 8.22668245 2.86374749 8.22668245 5 10 C6.98821313 10.39764263 8.98944339 10.73775349 11 11 C11 11.33 11 11.66 11 12 C9.906875 12.165 8.81375 12.33 7.6875 12.5 C3.99455496 13.56869679 3.99455496 13.56869679 2.8671875 15.9140625 C2.13382276 17.92903553 1.50850828 19.9175375 1 22 C0.67 22 0.34 22 0 22 C-0.28875 20.88625 -0.5775 19.7725 -0.875 18.625 C-1.69241329 14.99708908 -1.69241329 14.99708908 -4 13 C-5.98821313 12.60235737 -7.98944339 12.26224651 -10 12 C-10 11.67 -10 11.34 -10 11 C-8.88625 10.71125 -7.7725 10.4225 -6.625 10.125 C-2.99708908 9.30758671 -2.99708908 9.30758671 -1 7 C-0.59952556 4.67724823 -0.2602896 2.34260643 0 0 Z " fill="#47B7B5" transform="translate(515,283)"/>
<path d="M0 0 C0.66 0 1.32 0 2 0 C1.63662961 6.41954359 1.63662961 6.41954359 -1.125 8.9375 C-6.08592874 10.77088671 -10.12353965 10.54228621 -14.9375 8.5 C-15.948125 8.005 -16.95875 7.51 -18 7 C-17.34 5.68 -16.68 4.36 -16 3 C-15.505 3.33 -15.01 3.66 -14.5 4 C-9.93775265 5.82489894 -4.65160624 5.55053541 0 4 C0 2.68 0 1.36 0 0 Z " fill="#51C5C0" transform="translate(617,686)"/>
<path d="M0 0 C3.3 0 6.6 0 10 0 C10.625 2.875 10.625 2.875 11 6 C9 8 9 8 6.8359375 8.1953125 C5.61777344 8.16050781 5.61777344 8.16050781 4.375 8.125 C3.55773438 8.10695313 2.74046875 8.08890625 1.8984375 8.0703125 C1.27195312 8.04710937 0.64546875 8.02390625 0 8 C0 5.36 0 2.72 0 0 Z " fill="#1F2634" transform="translate(1074,677)"/>
<path d="M0 0 C5.28 0 10.56 0 16 0 C16 0.99 16 1.98 16 3 C11.71 3 7.42 3 3 3 C3 5.31 3 7.62 3 10 C2.67 10 2.34 10 2 10 C1.67 13.63 1.34 17.26 1 21 C1.66 21.33 2.32 21.66 3 22 C2.01 22 1.02 22 0 22 C0 14.74 0 7.48 0 0 Z " fill="#5FDFDE" transform="translate(1037,673)"/>
<path d="M0 0 C0.66 0 1.32 0 2 0 C2.66 2.64 3.32 5.28 4 8 C6.31 8.33 8.62 8.66 11 9 C11 9.33 11 9.66 11 10 C9.88625 10.20625 8.7725 10.4125 7.625 10.625 C3.73400805 11.61628301 3.73400805 11.61628301 2.5625 15.125 C2.376875 16.07375 2.19125 17.0225 2 18 C1.71125 17.38125 1.4225 16.7625 1.125 16.125 C0.06279958 13.86674235 0.06279958 13.86674235 -2 12 C-4.32275177 11.59952556 -6.65739357 11.2602896 -9 11 C-9 10.34 -9 9.68 -9 9 C-7.329375 8.7215625 -7.329375 8.7215625 -5.625 8.4375 C-4.42875 7.963125 -3.2325 7.48875 -2 7 C-0.45913678 3.48599332 -0.45913678 3.48599332 0 0 Z " fill="#459FA7" transform="translate(485,314)"/>
<path d="M0 0 C4.62 0 9.24 0 14 0 C14 0.99 14 1.98 14 3 C10.04 3 6.08 3 2 3 C2 5.31 2 7.62 2 10 C6.62 10 11.24 10 16 10 C16 10.66 16 11.32 16 12 C10.72 11.67 5.44 11.34 0 11 C0 7.37 0 3.74 0 0 Z " fill="#58D6D3" transform="translate(901,683)"/>
<path d="M0 0 C4.80548597 -0.04936883 9.61082494 -0.08570443 14.41650391 -0.10986328 C16.05194672 -0.11993254 17.68737149 -0.13358881 19.32275391 -0.15087891 C21.6709437 -0.17508705 24.01889588 -0.18647357 26.3671875 -0.1953125 C27.10057343 -0.20563507 27.83395935 -0.21595764 28.58956909 -0.22659302 C30.39462697 -0.22699368 32.1990783 -0.12212755 34 0 C34.66 0.66 35.32 1.32 36 2 C34.9805127 2.01981934 33.96102539 2.03963867 32.91064453 2.06005859 C29.13467352 2.13602808 25.35909227 2.22475809 21.58349609 2.31738281 C19.9481576 2.35570852 18.31273376 2.39055507 16.67724609 2.421875 C14.3287909 2.46744842 11.98092505 2.52545367 9.6328125 2.5859375 C8.53273361 2.60326431 8.53273361 2.60326431 7.41043091 2.62094116 C3.25022895 2.61868097 3.25022895 2.61868097 0 5 C0 3.35 0 1.7 0 0 Z " fill="#55CECA" transform="translate(931,265)"/>
<path d="M0 0 C0 0.33 0 0.66 0 1 C-1.65 1 -3.3 1 -5 1 C-5 2.32 -5 3.64 -5 5 C-6.6454378 6.68762851 -8.31288577 8.3540349 -10 10 C-10.86119134 12.17346568 -10.86119134 12.17346568 -11 14 C-12.32 14.33 -13.64 14.66 -15 15 C-15.42056594 11.56537817 -15.63981991 9.00514918 -13.734375 6.01171875 C-9.23753338 0.73993598 -7.08062363 -0.13112266 0 0 Z " fill="#52C1BD" transform="translate(977,672)"/>
<path d="M0 0 C2.4590304 2.19318928 3.85691864 3.77358832 4.24609375 7.109375 C4.24957824 9.07462635 4.13293244 11.03924658 4 13 C2.68 12.67 1.36 12.34 0 12 C-0.2475 10.906875 -0.495 9.81375 -0.75 8.6875 C-1.70775258 5.09875239 -1.70775258 5.09875239 -3.625 3.125 C-7.0602301 1.49778574 -10.21647941 1.31529338 -14 1 C-14 0.67 -14 0.34 -14 0 C-3.66049879 -1.46419952 -3.66049879 -1.46419952 0 0 Z " fill="#61DDD2" transform="translate(811,675)"/>
<path d="M0 0 C0.77601563 0.09023438 1.55203125 0.18046875 2.3515625 0.2734375 C4.375 0.625 4.375 0.625 6.375 1.625 C6.045 2.945 5.715 4.265 5.375 5.625 C4.859375 5.46 4.34375 5.295 3.8125 5.125 C0.49181246 4.44383332 -2.24183631 4.26251818 -5.625 4.625 C-8.09708796 6.98332772 -8.09708796 6.98332772 -9.625 9.625 C-10.25 6.25 -10.25 6.25 -10.625 2.625 C-7.37156524 -0.62843476 -4.41560783 -0.54641301 0 0 Z " fill="#61D8D2" transform="translate(611.625,672.375)"/>
<path d="M0 0 C0.33 0.474375 0.66 0.94875 1 1.4375 C4.09813267 3.85791615 7.12026792 3.68198917 11 4 C11 4.66 11 5.32 11 6 C8.36 6.33 5.72 6.66 3 7 C2.34 8.65 1.68 10.3 1 12 C0.2575 10.7934375 0.2575 10.7934375 -0.5 9.5625 C-3.95695939 6.01911662 -6.14788209 6.2426059 -11 6 C-11 5.34 -11 4.68 -11 4 C-9.741875 3.896875 -8.48375 3.79375 -7.1875 3.6875 C-4.39500343 3.35141192 -3.25566879 3.19974124 -1 1.4375 C-0.67 0.963125 -0.34 0.48875 0 0 Z " fill="#406882" transform="translate(516,471)"/>
<path d="M0 0 C0.33 0 0.66 0 1 0 C1.66 2.31 2.32 4.62 3 7 C5.97 7.495 5.97 7.495 9 8 C9 8.66 9 9.32 9 10 C6.69 10.66 4.38 11.32 2 12 C1.67 13.98 1.34 15.96 1 18 C0.34 18 -0.32 18 -1 18 C-1.66 15.69 -2.32 13.38 -3 11 C-4.65 10.67 -6.3 10.34 -8 10 C-8 9.34 -8 8.68 -8 8 C-7.05125 7.79375 -6.1025 7.5875 -5.125 7.375 C-1.70833333 6.29166667 -1.70833333 6.29166667 -0.625 2.875 C-0.41875 1.92625 -0.2125 0.9775 0 0 Z " fill="#416F8B" transform="translate(1025,304)"/>
<path d="M0 0 C4.46133478 -0.38459783 7.77651717 -0.66369291 11.5625 1.9375 C14.21028975 5.2642102 14.34996989 5.76034329 14 9.75 C13.625 12.109375 13.625 12.109375 13 14 C12.01 14.495 12.01 14.495 11 15 C10.7525 13.741875 10.505 12.48375 10.25 11.1875 C9.55470275 8.45459552 9.16845234 7.18650081 7.25 5.0625 C4.51768445 3.77223988 1.99127139 3.3399172 -1 3 C-0.67 2.01 -0.34 1.02 0 0 Z " fill="#61D3CF" transform="translate(972,673)"/>
<path d="M0 0 C4.95 0 9.9 0 15 0 C15 0.66 15 1.32 15 2 C10.71 2 6.42 2 2 2 C2 6.29 2 10.58 2 15 C6.29 15 10.58 15 15 15 C15 15.33 15 15.66 15 16 C10.05 16 5.1 16 0 16 C0 10.72 0 5.44 0 0 Z " fill="#292B37" transform="translate(920,591)"/>
<path d="M0 0 C0 2.97 0 5.94 0 9 C-1.98 9.99 -1.98 9.99 -4 11 C-3.45859375 11.72316406 -3.45859375 11.72316406 -2.90625 12.4609375 C-2.4421875 13.09257813 -1.978125 13.72421875 -1.5 14.375 C-0.80390625 15.31472656 -0.80390625 15.31472656 -0.09375 16.2734375 C1 18 1 18 1 20 C-0.65 20 -2.3 20 -4 20 C-6.47753474 16.28369789 -6.5919638 12.31533031 -6 8 C-4.5 5.125 -4.5 5.125 -3 3 C-3 2.34 -3 1.68 -3 1 C-1 0 -1 0 0 0 Z " fill="#60D4CF" transform="translate(1089,676)"/>
<path d="M0 0 C0.99 0.33 1.98 0.66 3 1 C3.75 4.25 3.75 4.25 4 8 C2.125 10.3125 2.125 10.3125 0 12 C-0.33 12.66 -0.66 13.32 -1 14 C-2.32 14 -3.64 14 -5 14 C-4.34580901 8.93001981 -2.1453591 4.58009223 0 0 Z " fill="#58D9D1" transform="translate(668,681)"/>
<path d="M0 0 C0.66 0 1.32 0 2 0 C2 3.96 2 7.92 2 12 C4.64 12 7.28 12 10 12 C10.33 12.99 10.66 13.98 11 15 C7.7 15 4.4 15 1 15 C1 16.65 1 18.3 1 20 C0.67 20 0.34 20 0 20 C0 13.4 0 6.8 0 0 Z " fill="#5CD1CD" transform="translate(1004,674)"/>
<path d="M0 0 C5.28 0 10.56 0 16 0 C16.66 1.32 17.32 2.64 18 4 C17.34 4 16.68 4 16 4 C16.33 5.65 16.66 7.3 17 9 C15.5 7.625 15.5 7.625 14 6 C14 5.34 14 4.68 14 4 C13.32453125 3.96261719 12.6490625 3.92523437 11.953125 3.88671875 C11.06109375 3.82097656 10.1690625 3.75523437 9.25 3.6875 C7.92742187 3.60048828 7.92742187 3.60048828 6.578125 3.51171875 C4 3 4 3 0 0 Z " fill="#6FDCD5" transform="translate(1070,673)"/>
<path d="M0 0 C1.32 0.66 2.64 1.32 4 2 C3.71203543 4.78365748 3.12404334 5.87595666 1.125 7.875 C-3.74317 9.6275412 -8.07848793 8.19805635 -13 7 C-13 6.67 -13 6.34 -13 6 C-12.39671875 5.98582031 -11.7934375 5.97164062 -11.171875 5.95703125 C-5.71123416 5.68721054 -5.71123416 5.68721054 -1.4375 2.4375 C-0.7259375 1.2309375 -0.7259375 1.2309375 0 0 Z " fill="#54CAC5" transform="translate(810,686)"/>
<path d="M0 0 C0.99 0 1.98 0 3 0 C3 4.95 3 9.9 3 15 C2.34 15 1.68 15 1 15 C1 16.65 1 18.3 1 20 C0.67 20 0.34 20 0 20 C0 13.4 0 6.8 0 0 Z " fill="#63DFDC" transform="translate(549,673)"/>
<path d="M0 0 C0.99 0 1.98 0 3 0 C3.2494783 7.29031024 2.72330907 13.90673679 1 21 C1.66 21.33 2.32 21.66 3 22 C2.01 22 1.02 22 0 22 C0 14.74 0 7.48 0 0 Z " fill="#6DE5E6" transform="translate(737,673)"/>
<path d="M0 0 C4.29 0 8.58 0 13 0 C13 1.32 13 2.64 13 4 C7.39 4 1.78 4 -4 4 C-4 3.67 -4 3.34 -4 3 C-2.35 2.67 -0.7 2.34 1 2 C0.67 1.34 0.34 0.68 0 0 Z " fill="#49B7B6" transform="translate(521,692)"/>
<path d="M0 0 C0.79921875 0.00902344 1.5984375 0.01804687 2.421875 0.02734375 C3.02515625 0.03894531 3.6284375 0.05054688 4.25 0.0625 C4.25 1.3825 4.25 2.7025 4.25 4.0625 C-1.36 4.0625 -6.97 4.0625 -12.75 4.0625 C-8.06509742 0.54882307 -5.68664689 -0.08362716 0 0 Z " fill="#45B7B5" transform="translate(561.75,691.9375)"/>
<path d="M0 0 C7.38461538 -0.36923077 7.38461538 -0.36923077 10.5 1.5 C10.995 1.995 11.49 2.49 12 3 C9.36 3 6.72 3 4 3 C4 5.64 4 8.28 4 11 C3.01 11.33 2.02 11.66 1 12 C0.67 8.04 0.34 4.08 0 0 Z " fill="#56C6C2" transform="translate(1070,674)"/>
<path d="M0 0 C1.4370809 -0.05422947 2.87475462 -0.09289723 4.3125 -0.125 C5.11300781 -0.14820313 5.91351562 -0.17140625 6.73828125 -0.1953125 C9 0 9 0 12 2 C11.67 3.32 11.34 4.64 11 6 C7.37 5.01 3.74 4.02 0 3 C0 2.01 0 1.02 0 0 Z " fill="#64DBD0" transform="translate(709,673)"/>
<path d="M0 0 C1.65 1.65 3.3 3.3 5 5 C4.01 5 3.02 5 2 5 C1.67 14.57 1.34 24.14 1 34 C0.67 34 0.34 34 0 34 C0 22.78 0 11.56 0 0 Z " fill="#21242F" transform="translate(816,601)"/>
<path d="M0 0 C1.75 0.1875 1.75 0.1875 4 1 C5.2375 1.350625 6.475 1.70125 7.75 2.0625 C8.8225 2.371875 9.895 2.68125 11 3 C11 3.33 11 3.66 11 4 C3.57142857 6.14285714 3.57142857 6.14285714 0 7 C-0.99 5.68 -1.98 4.36 -3 3 C-1.75 1.4375 -1.75 1.4375 0 0 Z " fill="#51D0CD" transform="translate(515,291)"/>
<path d="M0 0 C4.62 0 9.24 0 14 0 C14 0.99 14 1.98 14 3 C9.38 3 4.76 3 0 3 C0 2.01 0 1.02 0 0 Z " fill="#51CBC9" transform="translate(1040,692)"/>
<path d="M0 0 C2.5999298 2.51027705 4.99091227 4.9863684 7 8 C7 8.66 7 9.32 7 10 C4.75 10.3125 4.75 10.3125 2 10 C-0.375 7.75 -0.375 7.75 -2 5 C-1.81190541 2.74286486 -1.60454441 1.60454441 0 0 Z " fill="#53CBCA" transform="translate(750,686)"/>
<path d="M0 0 C0.66 0 1.32 0 2 0 C2.99 2.97 3.98 5.94 5 9 C2.36 9 -0.28 9 -3 9 C-2.01 6.03 -1.02 3.06 0 0 Z " fill="#223442" transform="translate(674,678)"/>
<path d="M0 0 C0.99 0 1.98 0 3 0 C3 4.62 3 9.24 3 14 C2.01 14.33 1.02 14.66 0 15 C0 10.05 0 5.1 0 0 Z " fill="#68EBE2" transform="translate(480,673)"/>
<path d="M0 0 C1.75 0.0625 1.75 0.0625 4 1 C5.59501537 3.24164322 6.74543018 5.53566643 8 8 C6.68 8.33 5.36 8.66 4 9 C-0.00390625 4.60546875 -0.00390625 4.60546875 -1 3 C-0.67 2.01 -0.34 1.02 0 0 Z " fill="#55CAC9" transform="translate(964,686)"/>
<path d="M0 0 C3.15702316 3.90869534 6 7.8614939 6 13 C4.68 13 3.36 13 2 13 C1.690625 12.05125 1.38125 11.1025 1.0625 10.125 C0.12605258 7.13919592 0.12605258 7.13919592 -1 5 C-0.72057545 3.32345271 -0.39171753 1.65391846 0 0 Z " fill="#5BD8D2" transform="translate(681,682)"/>
<path d="M0 0 C0.99 0 1.98 0 3 0 C3 4.95 3 9.9 3 15 C2.01 14.67 1.02 14.34 0 14 C0 9.38 0 4.76 0 0 Z " fill="#65E6E2" transform="translate(497,673)"/>
<path d="M0 0 C4.75 0.75 4.75 0.75 7 3 C6.75 6.0625 6.75 6.0625 6 9 C5.01 9.495 5.01 9.495 4 10 C3.71125 9.21625 3.4225 8.4325 3.125 7.625 C2.15087746 4.90328368 2.15087746 4.90328368 0 3 C0 2.01 0 1.02 0 0 Z " fill="#5CD3CC" transform="translate(1014,673)"/>
<path d="M0 0 C3.96 0 7.92 0 12 0 C12 0.33 12 0.66 12 1 C9.69 1.66 7.38 2.32 5 3 C4.67 8.61 4.34 14.22 4 20 C3.67 20 3.34 20 3 20 C2.95101562 18.72382812 2.90203125 17.44765625 2.8515625 16.1328125 C2.77653809 14.46351928 2.70099012 12.79424954 2.625 11.125 C2.57859375 9.86236328 2.57859375 9.86236328 2.53125 8.57421875 C2.49257813 7.76855469 2.45390625 6.96289062 2.4140625 6.1328125 C2.3826416 5.38918457 2.3512207 4.64555664 2.31884766 3.87939453 C2.14580449 1.75989026 2.14580449 1.75989026 0 0 Z " fill="#5EDFD9" transform="translate(638,674)"/>
<path d="M0 0 C2.64 1.32 5.28 2.64 8 4 C8 4.66 8 5.32 8 6 C1.47692308 6.36923077 1.47692308 6.36923077 -0.9375 4.5 C-1.4634375 3.7575 -1.4634375 3.7575 -2 3 C-1.34 2.01 -0.68 1.02 0 0 Z " fill="#62D2D1" transform="translate(601,689)"/>
<path d="M0 0 C0.99 0 1.98 0 3 0 C3 2.64 3 5.28 3 8 C1.68 8 0.36 8 -1 8 C-1.04241723 5.66705225 -1.04092937 3.33297433 -1 1 C-0.67 0.67 -0.34 0.34 0 0 Z " fill="#59C9C5" transform="translate(1071,688)"/>
<path d="M0 0 C3.63 0 7.26 0 11 0 C11 0.99 11 1.98 11 3 C7.7 3 4.4 3 1 3 C0.67 2.01 0.34 1.02 0 0 Z " fill="#60DCD8" transform="translate(904,683)"/>
<path d="M0 0 C3.41158256 1.13719419 4.11854601 2.04342944 6 5 C6 5.66 6 6.32 6 7 C4.35 7 2.7 7 1 7 C-0.0625 5.1875 -0.0625 5.1875 -1 3 C-0.67 2.01 -0.34 1.02 0 0 Z " fill="#58C9C8" transform="translate(1084,689)"/>
<path d="M0 0 C1.32 0 2.64 0 4 0 C3.01 2.97 2.02 5.94 1 9 C0.67 8.01 0.34 7.02 0 6 C-0.66 5.34 -1.32 4.68 -2 4 C-1.34 2.68 -0.68 1.36 0 0 Z " fill="#54CECA" transform="translate(881,673)"/>
<path d="M0 0 C3.96 0 7.92 0 12 0 C12.33 1.32 12.66 2.64 13 4 C11.58222818 3.91214662 10.16570961 3.80395353 8.75 3.6875 C7.96109375 3.62949219 7.1721875 3.57148437 6.359375 3.51171875 C4 3 4 3 0 0 Z " fill="#71E8E2" transform="translate(1070,673)"/>
<path d="M0 0 C0.33 0 0.66 0 1 0 C1.9765625 6.0546875 1.9765625 6.0546875 2 8 C1.34 8.66 0.68 9.32 0 10 C-2.21538462 4.58461538 -2.21538462 4.58461538 -1.125 1.625 C-0.75375 1.08875 -0.3825 0.5525 0 0 Z " fill="#54C9C6" transform="translate(671,675)"/>
<path d="M0 0 C0.99 0.33 1.98 0.66 3 1 C-0.96 4.465 -0.96 4.465 -5 8 C-5.33 7.34 -5.66 6.68 -6 6 C-2.25 1.125 -2.25 1.125 0 0 Z " fill="#54CFCD" transform="translate(561,269)"/>
<path d="M0 0 C1.5625 1.8125 1.5625 1.8125 3 4 C2.67 4.99 2.34 5.98 2 7 C1.01 7.33 0.02 7.66 -1 8 C-1.93065133 5.39417629 -2.14917407 4.35801776 -1.0625 1.75 C-0.711875 1.1725 -0.36125 0.595 0 0 Z " fill="#51CDC6" transform="translate(875,685)"/>
<path d="M0 0 C2.475 0.495 2.475 0.495 5 1 C4.34 2.32 3.68 3.64 3 5 C2.34 5 1.68 5 1 5 C0.67 3.35 0.34 1.7 0 0 Z " fill="#60D7D0" transform="translate(862,673)"/>
<path d="M0 0 C4.455 0.99 4.455 0.99 9 2 C9 2.33 9 2.66 9 3 C6.03 3 3.06 3 0 3 C0 2.01 0 1.02 0 0 Z " fill="#67E7E3" transform="translate(631,673)"/>
<path d="M0 0 C0.66 0 1.32 0 2 0 C2.19622241 4.21878192 1.80230168 7.17010894 0 11 C-0.33 11 -0.66 11 -1 11 C-0.67 7.37 -0.34 3.74 0 0 Z " fill="#52D3CD" transform="translate(550,286)"/>
<path d="M0 0 C2.31 0 4.62 0 7 0 C6.01 1.485 6.01 1.485 5 3 C1.875 3.1875 1.875 3.1875 -1 3 C-0.67 2.01 -0.34 1.02 0 0 Z " fill="#5FD8D2" transform="translate(971,692)"/>
<path d="M0 0 C1.5625 1.25 1.5625 1.25 3 3 C2.6875 5.1875 2.6875 5.1875 2 7 C0.62437146 5.71034824 -0.70766393 4.37310707 -2 3 C-2 2.34 -2 1.68 -2 1 C-1.34 0.67 -0.68 0.34 0 0 Z " fill="#54CED2" transform="translate(704,687)"/>
<path d="M0 0 C0.33 0.66 0.66 1.32 1 2 C1.99 1.67 2.98 1.34 4 1 C4 2.98 4 4.96 4 7 C3.01 7.495 3.01 7.495 2 8 C0.74335022 5.09399739 0 3.20395416 0 0 Z " fill="#67E0DE" transform="translate(677,680)"/>
<path d="M0 0 C0.66 0.33 1.32 0.66 2 1 C0.68 3.31 -0.64 5.62 -2 8 C-4 4.25 -4 4.25 -4 2 C-2.68 2 -1.36 2 0 2 C0 1.34 0 0.68 0 0 Z " fill="#5CDDD8" transform="translate(605,674)"/>
<path d="M0 0 C0 0.33 0 0.66 0 1 C-1.65 1.33 -3.3 1.66 -5 2 C-5 2.99 -5 3.98 -5 5 C-5.99 4.67 -6.98 4.34 -8 4 C-8 3.34 -8 2.68 -8 2 C-8.66 1.67 -9.32 1.34 -10 1 C-6.52674819 -0.1577506 -3.63932552 -0.06866652 0 0 Z " fill="#5EC0B9" transform="translate(715,672)"/>
<path d="M0 0 C0.99 0 1.98 0 3 0 C3 0.99 3 1.98 3 3 C3.66 3.33 4.32 3.66 5 4 C2.36 4 -0.28 4 -3 4 C-2.01 3.67 -1.02 3.34 0 3 C0 2.01 0 1.02 0 0 Z " fill="#57B7B6" transform="translate(489,692)"/>
<path d="M0 0 C0.66 0 1.32 0 2 0 C2.33 0.99 2.66 1.98 3 3 C2.34 3.66 1.68 4.32 1 5 C0.01 5 -0.98 5 -2 5 C-1.125 1.125 -1.125 1.125 0 0 Z " fill="#63D1CF" transform="translate(718,689)"/>
<path d="M0 0 C1.65 0 3.3 0 5 0 C5.33 0.99 5.66 1.98 6 3 C3.69 3 1.38 3 -1 3 C-0.67 2.01 -0.34 1.02 0 0 Z " fill="#68E0D9" transform="translate(972,673)"/>
</svg>
